<svg width="736" height="736" viewBox="0 0 736 736" fill="none" xmlns="http://www.w3.org/2000/svg">
<path d="M657.143 0H78.8571C35.3214 0 0 35.3214 0 78.8571V657.143C0 700.679 35.3214 736 78.8571 736H657.143C700.679 736 736 700.679 736 657.143V78.8571C736 35.3214 700.679 0 657.143 0ZM576.807 260.886C577.136 265.486 577.136 270.25 577.136 274.85C577.136 417.286 468.707 581.407 270.579 581.407C209.464 581.407 152.786 563.664 105.143 533.107C113.85 534.093 122.229 534.421 131.1 534.421C181.536 534.421 227.864 517.336 264.829 488.421C217.514 487.436 177.757 456.386 164.121 413.671C180.714 416.136 195.664 416.136 212.75 411.7C163.464 401.679 126.5 358.307 126.5 305.9V304.586C140.793 312.636 157.55 317.564 175.129 318.221C160.35 308.391 148.235 295.055 139.864 279.403C131.494 263.751 127.128 246.271 127.157 228.521C127.157 208.479 132.414 190.079 141.779 174.143C194.843 239.529 274.521 282.243 363.893 286.843C348.614 213.736 403.321 154.429 469.036 154.429C500.086 154.429 528.014 167.407 547.729 188.436C572.043 183.836 595.371 174.8 616.071 162.479C608.021 187.45 591.1 208.479 568.757 221.786C590.443 219.486 611.471 213.407 630.857 205.029C616.236 226.55 597.836 245.607 576.807 260.886Z" fill="#FAFAFA"/>
</svg>
